<svg xmlns="http://www.w3.org/2000/svg" viewBox="0 0 640 200" fill="none" role="img" aria-labelledby="sebsFlowTitle">
  <title id="sebsFlowTitle">SEBS simülasyon ve ölçüm ak???</title>
  <defs>
    <style>
      .s { stroke: #111827; stroke-width: 2.15; stroke-linecap: round; stroke-linejoin: round; }
      .score { font: 800 14.5px system-ui, -apple-system, sans-serif; fill: #111827; }
      .brand { font: 800 21px system-ui, -apple-system, sans-serif; fill: #111827; }
    </style>
    <linearGradient id="sk1" x1="0" y1="0" x2="0" y2="1"><stop offset="0%" stop-color="#fde6c8"/><stop offset="100%" stop-color="#f0c89a"/></linearGradient>
    <linearGradient id="sk2" x1="0" y1="0" x2="0" y2="1"><stop offset="0%" stop-color="#f9dccc"/><stop offset="100%" stop-color="#e8b498"/></linearGradient>
    <linearGradient id="sk3" x1="0" y1="0" x2="0" y2="1"><stop offset="0%" stop-color="#f8d0b0"/><stop offset="100%" stop-color="#dea080"/></linearGradient>
  </defs>

  <g opacity="0.32">
    <rect x="6" y="54" width="56" height="76" rx="9" fill="#fff" class="s"/>
    <circle cx="34" cy="84" r="13" fill="#f1f5f9" class="s"/>
    <rect x="68" y="60" width="56" height="76" rx="9" fill="#fff" class="s"/>
    <circle cx="96" cy="90" r="13" fill="#dbeafe" class="s"/>
    <rect x="528" y="62" width="56" height="76" rx="9" fill="#fff" class="s"/>
    <circle cx="556" cy="92" r="13" fill="#fce7f3" class="s"/>
  </g>

  <!-- Giri? -->
  <rect x="108" y="46" width="74" height="98" rx="10" fill="#fff" class="s"/>
  <circle cx="145" cy="78" r="21" fill="url(#sk1)" class="s"/>
  <path d="M128 76c2-9 9-15 17-15s15 6 17 15" fill="#4e342e" class="s"/>
  <circle cx="137" cy="78" r="2" fill="#111827"/>
  <circle cx="153" cy="78" r="2" fill="#111827"/>
  <rect x="133" y="84" width="24" height="7" rx="3.5" fill="none" class="s"/>
  <path d="M130 96h30" class="s"/>

  <!-- Kutu -->
  <path d="M205 34h95l14 16H219z" fill="#111827" class="s"/>
  <path d="M300 34l14 16v78l-14-16V34z" fill="#d1d5db" class="s"/>
  <rect x="191" y="50" width="109" height="98" rx="3" fill="#fff" class="s"/>
  <rect x="213" y="72" width="8" height="22" rx="2" fill="#2563eb"/>
  <rect x="225" y="66" width="8" height="28" rx="2" fill="#3b82f6"/>
  <rect x="237" y="60" width="8" height="34" rx="2" fill="#60a5fa"/>
  <text x="252" y="102" class="brand">SEBS</text>

  <!-- 73/100 -->
  <rect x="318" y="42" width="74" height="98" rx="10" fill="#fff" class="s"/>
  <circle cx="376" cy="56" r="11.5" fill="#22c55e" class="s"/>
  <path d="M372 58l2.5 2.5 6.5-7.5" stroke="#fff" stroke-width="2" fill="none" stroke-linecap="round" stroke-linejoin="round"/>
  <circle cx="355" cy="76" r="21" fill="url(#sk2)" class="s"/>
  <path d="M338 74c2-9 9-15 17-15s15 6 17 15" fill="#3e2723" class="s"/>
  <circle cx="347" cy="76" r="2" fill="#111827"/>
  <circle cx="363" cy="76" r="2" fill="#111827"/>
  <path d="M347 84c2 2.5 7 2.5 9 0" class="s"/>
  <path d="M340 92h30" class="s"/>
  <text x="355" y="124" text-anchor="middle" class="score">73/100</text>

  <!-- 18/100 -->
  <rect x="408" y="54" width="74" height="98" rx="10" fill="#fff" class="s"/>
  <circle cx="466" cy="68" r="11.5" fill="#ef4444" class="s"/>
  <path d="M462 70v5c0 1.8 1.2 3.2 3 3.6v4" stroke="#fff" stroke-width="1.9" fill="none" stroke-linecap="round"/>
  <path d="M468 70v5c0 1.8-1.2 3.2-3 3.6v4" stroke="#fff" stroke-width="1.9" fill="none" stroke-linecap="round"/>
  <circle cx="445" cy="88" r="21" fill="url(#sk3)" class="s"/>
  <path d="M428 86c3-8 11-14 19-14s16 6 19 14" fill="#3d2914" class="s"/>
  <rect x="430" y="80" width="30" height="9" rx="2" fill="none" class="s"/>
  <circle cx="439" cy="86" r="2" fill="#111827"/>
  <circle cx="455" cy="86" r="2" fill="#111827"/>
  <path d="M437 94h16" class="s"/>
  <rect x="439" y="98" width="18" height="9" rx="2" fill="#fecdd3" class="s"/>
  <text x="445" y="136" text-anchor="middle" class="score">18/100</text>
</svg>
