<svg xmlns="http://www.w3.org/2000/svg" viewBox="0 0 32 32" width="32" height="32">
  <defs>
    <linearGradient id="shieldGradient" x1="0%" y1="0%" x2="100%" y2="100%">
      <stop offset="0%" style="stop-color:#1e293b;stop-opacity:1" />
      <stop offset="100%" style="stop-color:#334155;stop-opacity:1" />
    </linearGradient>
  </defs>
  
  <!-- Shield Background -->
  <path d="M16 2L4 8v8c0 8 12 14 12 14s12-6 12-14V8L16 2z" fill="url(#shieldGradient)" stroke="#0f172a" stroke-width="1"/>
  
  <!-- Shield Icon -->
  <path d="M16 6L8 10v6c0 6 8 10 8 10s8-4 8-10v-6L16 6z" fill="#3b82f6" opacity="0.8"/>
  
  <!-- Lock Icon -->
  <rect x="12" y="14" width="8" height="6" rx="1" fill="#ffffff" opacity="0.9"/>
  <path d="M14 14v-2c0-1 1-2 2-2s2 1 2 2v2" stroke="#ffffff" stroke-width="1" fill="none"/>
  
  <!-- Text "C" -->
  <text x="16" y="22" font-family="Arial, sans-serif" font-size="8" font-weight="bold" text-anchor="middle" fill="#ffffff">C</text>
</svg>
