<svg xmlns="http://www.w3.org/2000/svg" width="480" height="200" viewBox="0 0 480 200">
  <defs>
    <linearGradient id="ct-bg" x1="0%" y1="0%" x2="100%" y2="100%"><stop offset="0%" style="stop-color:#0f172a"/><stop offset="100%" style="stop-color:#1e293b"/></linearGradient>
  </defs>
  <rect width="480" height="200" fill="url(#ct-bg)"/>
  <text x="240" y="24" fill="#e2e8f0" font-family="sans-serif" font-size="14" font-weight="600" text-anchor="middle">Kablo Turleri — Fiziksel Katman</text>
  <!-- Twisted Pair -->
  <rect x="24" y="44" width="140" height="120" rx="10" fill="rgba(59,130,246,0.2)" stroke="#60a5fa"/>
  <path d="M44 80 L124 80 M44 90 L124 90 M44 100 L124 100 M44 110 L124 110" stroke="#93c5fd" stroke-width="2" stroke-linecap="round"/>
  <text x="84" y="72" fill="#93c5fd" font-family="sans-serif" font-size="11" font-weight="600" text-anchor="middle">Twisted Pair</text>
  <text x="84" y="138" fill="#94a3b8" font-family="sans-serif" font-size="10" text-anchor="middle">CAT5e/6/6A</text>
  <text x="84" y="152" fill="#94a3b8" font-family="sans-serif" font-size="9" text-anchor="middle">Ev/ofis, ~100 m</text>
  <!-- Fiber -->
  <rect x="178" y="44" width="140" height="120" rx="10" fill="rgba(212,168,83,0.2)" stroke="#d4a853"/>
  <line x1="218" y1="70" x2="278" y2="70" stroke="#fcd34d" stroke-width="3" opacity="0.9"/>
  <line x1="218" y1="95" x2="278" y2="95" stroke="#fcd34d" stroke-width="2" opacity="0.7"/>
  <line x1="218" y1="120" x2="278" y2="120" stroke="#fcd34d" stroke-width="3" opacity="0.9"/>
  <text x="248" y="72" fill="#fcd34d" font-family="sans-serif" font-size="11" font-weight="600" text-anchor="middle">Fiber Optik</text>
  <text x="248" y="138" fill="#94a3b8" font-family="sans-serif" font-size="10" text-anchor="middle">Uzun mesafe</text>
  <text x="248" y="152" fill="#94a3b8" font-family="sans-serif" font-size="9" text-anchor="middle">EMI dayanikli</text>
  <!-- Coax -->
  <rect x="332" y="44" width="140" height="120" rx="10" fill="rgba(34,197,94,0.2)" stroke="#4ade80"/>
  <circle cx="402" cy="85" r="20" fill="none" stroke="#86efac" stroke-width="2"/>
  <circle cx="402" cy="85" r="12" fill="none" stroke="#86efac" stroke-width="1.5"/>
  <text x="402" y="72" fill="#86efac" font-family="sans-serif" font-size="11" font-weight="600" text-anchor="middle">Koaksiyel</text>
  <text x="402" y="138" fill="#94a3b8" font-family="sans-serif" font-size="10" text-anchor="middle">Modem/erisim</text>
  <text x="402" y="152" fill="#94a3b8" font-family="sans-serif" font-size="9" text-anchor="middle">Konnektor/sinyal</text>
  <text x="240" y="188" fill="#64748b" font-family="sans-serif" font-size="10" text-anchor="middle">Link isigi + konnektor + kablo kalitesi → teşhisin ilk adimi</text>
</svg>
