<svg xmlns="http://www.w3.org/2000/svg" width="520" height="220" viewBox="0 0 520 220">
  <defs>
    <linearGradient id="bus-bg" x1="0%" y1="0%" x2="100%" y2="100%"><stop offset="0%" style="stop-color:#0f172a"/><stop offset="100%" style="stop-color:#1e293b"/></linearGradient>
  </defs>
  <rect width="520" height="220" fill="url(#bus-bg)"/>
  <text x="260" y="24" fill="#e2e8f0" font-family="sans-serif" font-size="14" font-weight="600" text-anchor="middle">Bus (Dogrusal / Veriyolu) Topolojisi</text>
  <!-- Backbone -->
  <line x1="60" y1="110" x2="460" y2="110" stroke="#d4a853" stroke-width="4" stroke-linecap="round"/>
  <text x="260" y="98" fill="#94a3b8" font-family="sans-serif" font-size="10" text-anchor="middle">Omurga (Backbone)</text>
  <!-- Terminators -->
  <circle cx="50" cy="110" r="8" fill="none" stroke="#64748b" stroke-width="2"/>
  <circle cx="470" cy="110" r="8" fill="none" stroke="#64748b" stroke-width="2"/>
  <text x="50" y="148" fill="#94a3b8" font-family="sans-serif" font-size="9" text-anchor="middle">Sonlandirici</text>
  <text x="470" y="148" fill="#94a3b8" font-family="sans-serif" font-size="9" text-anchor="middle">Sonlandirici</text>
  <!-- Nodes on bus -->
  <line x1="140" y1="110" x2="140" y2="68" stroke="#60a5fa" stroke-width="1.5"/>
  <rect x="116" y="38" width="48" height="36" rx="6" fill="rgba(59,130,246,0.3)" stroke="#60a5fa"/>
  <text x="140" y="60" fill="#93c5fd" font-family="sans-serif" font-size="10" text-anchor="middle">PC 1</text>
  <line x1="260" y1="110" x2="260" y2="68" stroke="#60a5fa" stroke-width="1.5"/>
  <rect x="236" y="38" width="48" height="36" rx="6" fill="rgba(59,130,246,0.3)" stroke="#60a5fa"/>
  <text x="260" y="60" fill="#93c5fd" font-family="sans-serif" font-size="10" text-anchor="middle">PC 2</text>
  <line x1="380" y1="110" x2="380" y2="68" stroke="#60a5fa" stroke-width="1.5"/>
  <rect x="356" y="38" width="48" height="36" rx="6" fill="rgba(59,130,246,0.3)" stroke="#60a5fa"/>
  <text x="380" y="60" fill="#93c5fd" font-family="sans-serif" font-size="10" text-anchor="middle">PC 3</text>
  <!-- Caption -->
  <text x="260" y="192" fill="#94a3b8" font-family="sans-serif" font-size="11" text-anchor="middle">Tum cihazlar tek hat uzerinde; hat koparsa genis etki</text>
</svg>
