<svg xmlns="http://www.w3.org/2000/svg" width="520" height="200" viewBox="0 0 520 200">
  <defs>
    <linearGradient id="dr-bg" x1="0%" y1="0%" x2="100%" y2="100%"><stop offset="0%" style="stop-color:#0f172a"/><stop offset="100%" style="stop-color:#1e293b"/></linearGradient>
  </defs>
  <rect width="520" height="200" fill="url(#dr-bg)"/>
  <text x="260" y="22" fill="#e2e8f0" font-family="sans-serif" font-size="14" font-weight="600" text-anchor="middle">Ag Cihazlari ve Rolleri</text>
  <!-- NIC -->
  <rect x="24" y="44" width="88" height="72" rx="10" fill="rgba(99,102,241,0.25)" stroke="#818cf8"/>
  <rect x="44" y="58" width="48" height="32" rx="4" fill="#334155"/>
  <text x="68" y="78" fill="#c4b5fd" font-family="sans-serif" font-size="9" text-anchor="middle">NIC</text>
  <text x="68" y="108" fill="#94a3b8" font-family="sans-serif" font-size="9" text-anchor="middle">Arayuz</text>
  <!-- Switch -->
  <rect x="128" y="44" width="88" height="72" rx="10" fill="rgba(59,130,246,0.25)" stroke="#60a5fa"/>
  <path d="M148 62 L188 62 L188 98 L148 98 Z" fill="none" stroke="#60a5fa" stroke-width="1.5"/>
  <line x1="158" y1="72" x2="178" y2="88" stroke="#60a5fa"/>
  <line x1="178" y1="72" x2="158" y2="88" stroke="#60a5fa"/>
  <text x="168" y="108" fill="#93c5fd" font-family="sans-serif" font-size="9" text-anchor="middle">Switch (MAC)</text>
  <!-- Router -->
  <rect x="232" y="40" width="96" height="80" rx="10" fill="rgba(30,64,175,0.4)" stroke="#3b82f6" stroke-width="1.5"/>
  <text x="280" y="62" fill="#93c5fd" font-family="sans-serif" font-size="11" font-weight="600" text-anchor="middle">Router</text>
  <text x="280" y="78" fill="#93c5fd" font-family="sans-serif" font-size="9" text-anchor="middle">Gateway</text>
  <text x="280" y="108" fill="#94a3b8" font-family="sans-serif" font-size="9" text-anchor="middle">Yonlendirme</text>
  <!-- AP -->
  <rect x="344" y="44" width="88" height="72" rx="10" fill="rgba(212,168,83,0.25)" stroke="#d4a853"/>
  <circle cx="388" cy="72" r="14" fill="none" stroke="#d4a853" stroke-width="1.5"/>
  <path d="M388 58 L388 48 M378 72 L368 72 M388 86 L388 96 M398 72 L408 72" stroke="#d4a853" stroke-width="1"/>
  <text x="388" y="108" fill="#fcd34d" font-family="sans-serif" font-size="9" text-anchor="middle">AP (Wi-Fi)</text>
  <!-- Modem -->
  <rect x="448" y="44" width="88" height="72" rx="10" fill="rgba(34,197,94,0.2)" stroke="#4ade80"/>
  <rect x="468" y="58" width="48" height="28" rx="4" fill="#334155" stroke="#4ade80"/>
  <text x="492" y="76" fill="#86efac" font-family="sans-serif" font-size="9" text-anchor="middle">ONT</text>
  <text x="492" y="108" fill="#94a3b8" font-family="sans-serif" font-size="9" text-anchor="middle">Modem/ISP</text>
  <!-- Legend -->
  <text x="260" y="178" fill="#64748b" font-family="sans-serif" font-size="10" text-anchor="middle">Ayni kutu: Router + Switch + AP + Firewall — Sorun giderme rolle (gateway / switch / AP)</text>
</svg>
