<svg xmlns="http://www.w3.org/2000/svg" width="500" height="240" viewBox="0 0 500 240">
  <defs>
    <linearGradient id="mesh-bg" x1="0%" y1="0%" x2="100%" y2="100%"><stop offset="0%" style="stop-color:#0f172a"/><stop offset="100%" style="stop-color:#1e293b"/></linearGradient>
  </defs>
  <rect width="500" height="240" fill="url(#mesh-bg)"/>
  <text x="250" y="24" fill="#e2e8f0" font-family="sans-serif" font-size="14" font-weight="600" text-anchor="middle">Mesh (Orgü) Topolojisi — Yedeklilik</text>
  <!-- Nodes -->
  <rect x="80" y="88" width="56" height="40" rx="8" fill="rgba(59,130,246,0.35)" stroke="#60a5fa"/>
  <text x="108" y="112" fill="#93c5fd" font-family="sans-serif" font-size="10" text-anchor="middle">A</text>
  <rect x="220" y="48" width="60" height="40" rx="8" fill="rgba(99,102,241,0.35)" stroke="#818cf8"/>
  <text x="250" y="72" fill="#c4b5fd" font-family="sans-serif" font-size="10" text-anchor="middle">B</text>
  <rect x="364" y="88" width="56" height="40" rx="8" fill="rgba(34,197,94,0.3)" stroke="#4ade80"/>
  <text x="392" y="112" fill="#86efac" font-family="sans-serif" font-size="10" text-anchor="middle">C</text>
  <rect x="220" y="152" width="60" height="40" rx="8" fill="rgba(212,168,83,0.25)" stroke="#d4a853"/>
  <text x="250" y="176" fill="#fcd34d" font-family="sans-serif" font-size="10" text-anchor="middle">D</text>
  <!-- Multiple links (mesh) -->
  <line x1="136" y1="108" x2="220" y2="68" stroke="#60a5fa" stroke-width="1.5" opacity="0.8"/>
  <line x1="136" y1="128" x2="220" y2="152" stroke="#60a5fa" stroke-width="1.5" opacity="0.8"/>
  <line x1="250" y1="88" x2="364" y2="108" stroke="#4ade80" stroke-width="1.5" opacity="0.8"/>
  <line x1="280" y1="88" x2="364" y2="108" stroke="#4ade80" stroke-width="1.5" opacity="0.6"/>
  <line x1="250" y1="152" x2="364" y2="128" stroke="#d4a853" stroke-width="1.5" opacity="0.8"/>
  <line x1="220" y1="152" x2="136" y2="128" stroke="#d4a853" stroke-width="1.5" opacity="0.8"/>
  <line x1="392" y1="108" x2="392" y2="128" stroke="#94a3b8" stroke-width="1" opacity="0.6"/>
  <text x="250" y="218" fill="#94a3b8" font-family="sans-serif" font-size="11" text-anchor="middle">Birden fazla yol; bir baglanti kopunca alternatif yol kullanilir</text>
</svg>
