<svg xmlns="http://www.w3.org/2000/svg" width="480" height="260" viewBox="0 0 480 260">
  <defs>
    <linearGradient id="ring-bg" x1="0%" y1="0%" x2="100%" y2="100%"><stop offset="0%" style="stop-color:#0f172a"/><stop offset="100%" style="stop-color:#1e293b"/></linearGradient>
  </defs>
  <rect width="480" height="260" fill="url(#ring-bg)"/>
  <text x="240" y="24" fill="#e2e8f0" font-family="sans-serif" font-size="14" font-weight="600" text-anchor="middle">Ring (Halka) Topolojisi</text>
  <!-- Ring path -->
  <path d="M240 60 L380 100 L380 180 L240 220 L100 180 L100 100 Z" fill="none" stroke="#d4a853" stroke-width="3" stroke-dasharray="6 4"/>
  <!-- Nodes on ring -->
  <rect x="220" y="42" width="40" height="32" rx="6" fill="rgba(59,130,246,0.35)" stroke="#60a5fa"/>
  <text x="240" y="62" fill="#93c5fd" font-family="sans-serif" font-size="10" text-anchor="middle">1</text>
  <rect x="358" y="82" width="44" height="36" rx="6" fill="rgba(99,102,241,0.3)" stroke="#818cf8"/>
  <text x="380" y="102" fill="#c4b5fd" font-family="sans-serif" font-size="10" text-anchor="middle">2</text>
  <rect x="358" y="162" width="44" height="36" rx="6" fill="rgba(34,197,94,0.25)" stroke="#4ade80"/>
  <text x="380" y="182" fill="#86efac" font-family="sans-serif" font-size="10" text-anchor="middle">3</text>
  <rect x="218" y="202" width="44" height="36" rx="6" fill="rgba(34,197,94,0.25)" stroke="#4ade80"/>
  <text x="240" y="222" fill="#86efac" font-family="sans-serif" font-size="10" text-anchor="middle">4</text>
  <rect x="98" y="162" width="44" height="36" rx="6" fill="rgba(99,102,241,0.3)" stroke="#818cf8"/>
  <text x="120" y="182" fill="#c4b5fd" font-family="sans-serif" font-size="10" text-anchor="middle">5</text>
  <rect x="98" y="82" width="44" height="36" rx="6" fill="rgba(59,130,246,0.35)" stroke="#60a5fa"/>
  <text x="120" y="102" fill="#93c5fd" font-family="sans-serif" font-size="10" text-anchor="middle">6</text>
  <text x="240" y="248" fill="#94a3b8" font-family="sans-serif" font-size="11" text-anchor="middle">Veri halka uzerinde dolasir; tek kopma (yedeksiz) donguyu bozabilir</text>
</svg>
